<?xml version="1.0" encoding="iso-8859-1"?>
<!-- Generator: Adobe Illustrator 19.0.0, SVG Export Plug-In . SVG Version: 6.00 Build 0)  -->
<svg version="1.1" id="Layer_1" xmlns="http://www.w3.org/2000/svg" xmlns:xlink="http://www.w3.org/1999/xlink" x="0px" y="0px"
	 viewBox="0 0 512.001 512.001" style="enable-background:new 0 0 512.001 512.001;" xml:space="preserve">
<polygon style="fill:#CFF09E;" points="167.546,473.728 174.833,112.185 449.789,347.061 283.379,354.048 "/>
<g>
	<path style="fill:#507C5C;" d="M459.05,336.218L184.096,101.342c-4.19-3.579-10.07-4.425-15.1-2.167
		c-5.029,2.257-8.308,7.211-8.419,12.722L153.29,473.44c-0.118,5.861,3.362,11.198,8.774,13.451
		c1.774,0.739,3.633,1.097,5.479,1.097c3.789,0,7.509-1.512,10.25-4.344l77.772-80.355l45.008,100.287
		c2.374,5.289,7.573,8.425,13.018,8.425c1.951,0,3.934-0.404,5.829-1.253l57.07-25.612c3.451-1.549,6.144-4.405,7.489-7.938
		c1.345-3.535,1.231-7.459-0.318-10.909L354.674,401.7c-3.226-7.185-11.662-10.397-18.848-7.171
		c-7.185,3.226-10.397,11.663-7.171,18.848l23.149,51.58l-31.052,13.935l-43.831-97.666l12.744-13.167l160.72-6.748
		c5.856-0.245,10.967-4.051,12.881-9.592C465.18,346.174,463.508,340.026,459.05,336.218z M292.434,339.395L247.185,238.57
		c-3.226-7.187-11.662-10.394-18.848-7.171c-7.185,3.226-10.397,11.663-7.171,18.848l45.25,100.826l-83.88,86.665l5.949-295.14
		l224.453,191.737L292.434,339.395z"/>
	<path style="fill:#507C5C;" d="M151.711,73.797c-5.451,0-10.655-3.143-13.025-8.439l-18.968-42.397
		c-3.217-7.19,0.004-15.624,7.193-18.84c7.19-3.217,15.623,0.004,18.84,7.193l18.968,42.396c3.217,7.19-0.004,15.624-7.193,18.84
		C155.635,73.394,153.656,73.797,151.711,73.797z"/>
	<path style="fill:#507C5C;" d="M105.605,122.549c-1.691,0-3.409-0.302-5.084-0.943l-43.391-16.565
		c-7.358-2.809-11.044-11.051-8.235-18.408c2.809-7.357,11.05-11.046,18.408-8.235l43.391,16.565
		c7.358,2.809,11.044,11.051,8.235,18.408C116.759,119.054,111.346,122.549,105.605,122.549z"/>
	<path style="fill:#507C5C;" d="M267.528,118.012c-5.451,0-10.655-3.143-13.025-8.439c-3.217-7.188,0.003-15.624,7.193-18.84
		l42.394-18.968c7.188-3.218,15.623,0.004,18.84,7.193c3.217,7.188-0.003,15.624-7.193,18.84l-42.394,18.968
		C271.453,117.612,269.475,118.012,267.528,118.012z"/>
	<path style="fill:#507C5C;" d="M65.099,208.582c-5.451,0-10.655-3.141-13.025-8.439c-3.217-7.19,0.003-15.624,7.193-18.84
		l42.394-18.968c7.188-3.217,15.624,0.004,18.84,7.193c3.217,7.19-0.003,15.624-7.193,18.84l-42.394,18.968
		C69.023,208.181,67.046,208.582,65.099,208.582z"/>
	<path style="fill:#507C5C;" d="M218.766,71.919c-1.691,0-3.41-0.302-5.084-0.943c-7.358-2.809-11.044-11.051-8.235-18.408
		l16.565-43.391c2.811-7.357,11.05-11.046,18.408-8.235c7.358,2.809,11.044,11.051,8.235,18.408L232.09,62.741
		C229.92,68.424,224.508,71.919,218.766,71.919z"/>
</g>
<g>
</g>
<g>
</g>
<g>
</g>
<g>
</g>
<g>
</g>
<g>
</g>
<g>
</g>
<g>
</g>
<g>
</g>
<g>
</g>
<g>
</g>
<g>
</g>
<g>
</g>
<g>
</g>
<g>
</g>
</svg>
